:SAMPLES-PER-SECOND 30
:FULLY-SPECIFIED
:DEGREES
56
root  -6.13692 38.8866 6.54724 114.572 -87.2915 -119.755
RightUpLeg  -2.76836 -5.5952 4.44717
RightLeg  21.9355 1.44965 0.454393
RightFoot  -14.3187 -0.179482 -3.15746
RightToes  5.47152e-009 0 -3.6325e-017
Spine  9.60181 -0.962949 13.3945
Spine1  7.9785 1.17803 -2.02702
HEad  -12.2146 0.00872393 -6.7215
LeftShoulder1  0.354885 2.55096 -31.1346
LeftArm  -8.73345 -3.436 -43.4361
LeftForeArm  26.7312 -9.33866 -6.21589
LeftHand  -0.162744 0.589019 3.89227
RightShoulder  -0.350259 -4.55861 26.0957
RightArm  6.15719 21.0964 46.199
RightForeArm  7.74259 8.33882 4.96589
RightHand  -0.249793 2.8246 -3.75181
LeftUpLeg  -18.4947 -2.68037 4.18574
LeftLeg  53.6724 -2.39772 -3.04075
LeftFoot  -1.09961 0.344617 -3.79249
LeftToes  -4.29285e-010 1.49941e-010 2.15559e-012
57
root  -7.5087 38.9831 6.46003 132.878 -87.5125 -138.252
RightUpLeg  0.708736 -6.22324 3.37885
RightLeg  20.1385 2.58307 0.775056
RightFoot  -15.5704 -0.230385 -3.39882
RightToes  5.47152e-009 0 -3.6325e-017
Spine  8.88086 -0.536409 13.3098
Spine1  8.10934 1.64151 -3.2399
HEad  -11.0139 -0.282214 -7.27022
LeftShoulder1  0.330748 2.61026 -30.9559
LeftArm  -8.88232 -4.63584 -42.4904
LeftForeArm  26.3568 -7.31587 -6.28421
LeftHand  -0.120973 1.48147 3.44085
RightShoulder  -0.258395 -4.30652 24.9208
RightArm  6.23328 24.7971 47.0097
RightForeArm  6.76497 9.56519 5.00072
RightHand  -0.282201 2.49744 -4.3573
LeftUpLeg  -20.1256 -2.37902 3.59638
LeftLeg  44.7311 -2.73693 -2.48354
LeftFoot  -2.1298 0.35609 -4.25483
LeftToes  -4.29285e-010 1.49941e-010 2.15559e-012
58
root  -8.87918 39.0443 6.34899 149.174 -87.4398 -154.657
RightUpLeg  4.28808 -6.63526 2.45789
RightLeg  17.9314 3.61322 0.957504
RightFoot  -16.6526 -0.266058 -3.30649
RightToes  5.47152e-009 0 -3.6325e-017
Spine  8.16097 -0.167884 12.9633
Spine1  8.32457 2.00976 -4.44327
HEad  -10.5987 0.144441 -6.94893
LeftShoulder1  0.382133 2.44836 -30.0781
LeftArm  -8.98441 -5.60669 -42.2003
LeftForeArm  25.0869 -4.93919 -6.06159
LeftHand  -0.0879954 2.84968 3.37055
RightShoulder  -0.193599 -4.11407 23.9466
RightArm  6.54948 28.8264 47.5854
RightForeArm  5.08973 10.478 5.09104
RightHand  -0.333129 2.78282 -4.94199
LeftUpLeg  -20.6182 -1.53017 3.09751
LeftLeg  33.293 -3.56785 -2.2082
LeftFoot  -2.27379 0.347208 -4.20437
LeftToes  -4.29285e-010 1.49941e-010 2.15559e-012
59
root  -10.2914 39.0408 6.23568 157.479 -87.1082 -163.292
RightUpLeg  8.35324 -6.94118 1.76017
RightLeg  15.3088 4.45754 1.04825
RightFoot  -17.5236 -0.295225 -3.27038
RightToes  5.47152e-009 0 -3.6325e-017
Spine  7.3395 0.129954 12.3152
Spine1  9.04342 2.17831 -4.92707
HEad  -10.7024 0.679695 -7.07898
LeftShoulder1  0.375647 2.45923 -29.9192
LeftArm  -9.10629 -7.01741 -41.3709
LeftForeArm  24.5775 -2.01985 -5.76829
LeftHand  -0.0600126 3.19564 2.50865
RightShoulder  -0.061378 -3.69225 22.5333
RightArm  6.52762 32.8168 48.1532
RightForeArm  2.91965 10.9836 5.10825
RightHand  -0.395807 3.35211 -5.50091
LeftUpLeg  -19.6972 -0.264228 2.62077
LeftLeg  20.0788 -4.44127 -1.35564
LeftFoot  -2.21392 0.414349 -5.0299
LeftToes  -4.29285e-010 1.49941e-010 2.15559e-012
60
root  -11.7201 38.9485 6.12398 161.115 -86.9465 -167.34
RightUpLeg  12.4789 -7.25014 1.06558
RightLeg  12.8554 5.14445 1.09375
RightFoot  -18.5312 -0.314043 -3.00912
RightToes  5.47152e-009 0 -3.6325e-017
Spine  6.45739 0.268033 11.9987
Spine1  10.0816 2.50169 -6.20536
HEad  -10.2999 0.394793 -6.42242
LeftShoulder1  0.4786 2.12777 -28.6266
LeftArm  -8.79178 -8.26368 -40.9419
LeftForeArm  25.2474 0.788342 -5.74706
LeftHand  -0.0494355 2.70414 1.35791
RightShoulder  -0.0261991 -3.57001 21.7236
RightArm  6.90001 37.0863 48.3731
RightForeArm  1.80577 11.0649 5.27577
RightHand  -0.374347 3.19761 -5.2962
LeftUpLeg  -18.2238 1.78857 1.8914
LeftLeg  7.10687 -6.15458 -0.458537
LeftFoot  -2.49946 0.476839 -5.96303
LeftToes  -4.29285e-010 1.49941e-010 2.15559e-012
61
root  -13.2085 38.7576 6.01632 167.641 -86.8058 -174.329
RightUpLeg  16.3703 -7.43031 0.207474
RightLeg  11.1705 5.7872 0.969288
RightFoot  -19.8296 -0.30683 -2.32211
RightToes  5.47152e-009 0 -3.6325e-017
Spine  5.21063 0.566426 10.5843
Spine1  11.7298 2.68865 -6.13003
HEad  -9.81799 0.126963 -5.74581
LeftShoulder1  0.514902 1.99596 -28.0324
LeftArm  -8.81242 -10.1788 -40.2307
LeftForeArm  26.4843 3.63498 -5.63518
LeftHand  -0.0253647 4.97415 0.0357705
RightShoulder  0.0543221 -3.27514 20.1692
RightArm  6.29527 40.9662 48.7973
RightForeArm  1.69437 11.05 5.10435
RightHand  -0.366166 2.67563 -5.48397
LeftUpLeg  -17.3048 3.13405 1.28245
LeftLeg  -1.81827 -5.24426 -0.195433
LeftFoot  -2.88289 0.430906 -5.59825
LeftToes  -4.29285e-010 1.49941e-010 2.15559e-012
62
root  -14.8077 38.4138 5.9945 168.649 -87.0467 -175.675
RightUpLeg  19.404 -7.7576 -0.544105
RightLeg  11.502 6.14459 1.01461
RightFoot  -21.6237 -0.270033 -1.39904
RightToes  5.47152e-009 0 -3.6325e-017
Spine  4.55371 0.400813 10.3231
Spine1  11.8788 2.74189 -7.10732
HEad  -8.89828 0.794652 -4.64927
LeftShoulder1  0.543289 1.85934 -26.8469
LeftArm  -9.16569 -11.6377 -39.7283
LeftForeArm  27.0472 6.00778 -5.32579
LeftHand  -0.0304824 5.59897 -0.0444931
RightShoulder  0.139612 -2.93666 19.1442
RightArm  5.88081 44.3566 49.0011
RightForeArm  1.00783 10.3124 5.10737
RightHand  -0.391264 2.65897 -5.8633
LeftUpLeg  -17.8446 3.11086 0.891975
LeftLeg  -2.96294 0.0362964 -0.717083
LeftFoot  -3.10262 0.466385 -6.10903
LeftToes  -4.29285e-010 1.49941e-010 2.15559e-012
63
root  -16.4807 37.9913 6.00862 171.277 -87.724 -178.807
RightUpLeg  22.0956 -7.96854 -1.41014
RightLeg  13.2763 6.33517 1.20447
RightFoot  -23.4637 -0.106431 0.503919
RightToes  5.47152e-009 0 -3.6325e-017
Spine  4.66381 0.233552 9.74541
Spine1  11.3497 2.63546 -7.53277
HEad  -8.25209 0.0596634 -3.50392
LeftShoulder1  0.513512 1.91827 -26.2056
LeftArm  -9.09378 -13.2702 -38.8041
LeftForeArm  28.6126 5.99891 -5.52531
LeftHand  -0.0304929 5.84028 -0.146873
RightShoulder  0.194031 -2.68931 17.9119
RightArm  4.84063 47.0925 48.7136
RightForeArm  0.524882 9.45861 4.90535
RightHand  -0.387722 3.45855 -5.32819
LeftUpLeg  -19.4667 2.78393 0.0115097
LeftLeg  3.05523 4.88745 -0.525883
LeftFoot  -0.733866 0.148845 -2.05734
LeftToes  -4.29285e-010 1.49941e-010 2.15559e-012
64
root  -18.2141 37.7109 6.02909 -171.333 -87.2025 162.983
RightUpLeg  24.6912 -7.03147 -3.07955
RightLeg  15.7062 6.91398 1.72868
RightFoot  -23.8648 0.213385 3.38186
RightToes  5.47152e-009 0 -3.6325e-017
Spine  4.6412 0.944012 8.86802
Spine1  11.8405 3.63145 -8.43956
HEad  -7.89715 -1.00746 -2.23377
LeftShoulder1  0.567275 1.73396 -25.8337
LeftArm  -9.62946 -15.8663 -38.4053
LeftForeArm  30.3791 6.13251 -5.28345
LeftHand  -0.0228163 4.68054 -0.585717
RightShoulder  0.25211 -2.40238 16.6123
RightArm  3.03276 48.8209 47.1566
RightForeArm  -0.644667 8.81373 4.54364
RightHand  -0.374643 3.5953 -5.08815
LeftUpLeg  -20.6945 3.63044 -1.65764
LeftLeg  10.6512 5.7187 0.696459
LeftFoot  5.54302 -0.531876 3.59307
LeftToes  -4.29285e-010 1.49941e-010 2.15559e-012
65
root  -19.9895 37.438 6.06977 -155.686 -85.4622 146.459
RightUpLeg  25.2044 -3.99334 -4.57268
RightLeg  21.8782 5.82863 2.40985
RightFoot  -23.3269 0.6292 7.51075
RightToes  5.47152e-009 0 -3.6325e-017
Spine  5.53942 1.75546 7.71579
Spine1  11.017 4.79128 -10.0254
HEad  -7.15038 -1.83186 -0.708974
LeftShoulder1  0.517156 1.84827 -25.0074
LeftArm  -9.61374 -18.5133 -38.3673
LeftForeArm  27.4001 6.28481 -5.35103
LeftHand  -0.028753 5.30672 0.593994
RightShoulder  0.332323 -2.02871 16.1098
RightArm  1.85296 50.4836 46.149
RightForeArm  -2.09261 7.24993 4.32109
RightHand  -0.412742 3.75817 -5.49518
LeftUpLeg  -21.0139 5.52864 -3.51248
LeftLeg  17.2293 4.27946 1.62755
LeftFoot  9.30343 -0.636817 3.22211
LeftToes  -4.29285e-010 1.49941e-010 2.15559e-012
